<?xml version="1.0" encoding="UTF-8" standalone="no"?><svg xmlns="http://www.w3.org/2000/svg" xmlns:xlink="http://www.w3.org/1999/xlink" contentStyleType="text/css" height="400px" preserveAspectRatio="none" style="width:748px;height:400px;background:#FFFFFF;" version="1.1" viewBox="0 0 748 400" width="748px" zoomAndPan="magnify"><defs/><g><!--MD5=[1d40c014220e1310ee960aff0a03e024]
cluster src.models--><g id="cluster_src.models"><path d="M13.5,11 L76.5,11 A3.75,3.75 0 0 1 79,13.5 L86,28.6406 L738.5,28.6406 A2.5,2.5 0 0 1 741,31.1406 L741,390.5 A2.5,2.5 0 0 1 738.5,393 L13.5,393 A2.5,2.5 0 0 1 11,390.5 L11,13.5 A2.5,2.5 0 0 1 13.5,11 " fill="#FFFFFF" style="stroke:#000000;stroke-width:1.0;"/><line style="stroke:#000000;stroke-width:1.0;" x1="11" x2="86" y1="28.6406" y2="28.6406"/><text fill="#000000" font-family="Verdana" font-size="10" font-weight="bold" lengthAdjust="spacing" textLength="62" x="15" y="22.2822">src.models</text></g><!--MD5=[6d5ede7c682de5345a00adaf875bdf8a]
class _BaseTorchModel--><g id="elem__BaseTorchModel"><rect codeLine="9" fill="#FFFFFF" height="67.2813" id="_BaseTorchModel" rx="2.5" ry="2.5" style="stroke:#000000;stroke-width:1.0;" width="257" x="331.5" y="158"/><ellipse cx="414.25" cy="172" fill="#FFFFFF" rx="9" ry="9" style="stroke:#000000;stroke-width:1.0;"/><path d="M413.7656,169.2813 L413.0781,172.2656 L414.4375,172.2656 L413.7656,169.2813 Z M412.875,167.9531 L414.6406,167.9531 L416.6094,175.25 L415.1719,175.25 L414.7188,173.4531 L412.7969,173.4531 L412.3594,175.25 L410.9063,175.25 L412.875,167.9531 Z " fill="#000000"/><text fill="#000000" font-family="Verdana" font-size="10" font-style="italic" lengthAdjust="spacing" textLength="84" x="431.75" y="175.4619">_BaseTorchModel</text><line style="stroke:#000000;stroke-width:1.0;" x1="332.5" x2="587.5" y1="186" y2="186"/><line style="stroke:#000000;stroke-width:1.0;" x1="332.5" x2="587.5" y1="194" y2="194"/><text fill="#000000" font-family="Verdana" font-size="10" lengthAdjust="spacing" textLength="245" x="337.5" y="207.2822">+__init__(observation_space, action_space, device)</text><text fill="#000000" font-family="Verdana" font-size="10" lengthAdjust="spacing" textLength="112" x="337.5" y="218.9229">+compute(inputs, role)</text></g><!--MD5=[da5e6996399ccfb94fe5e28fce034698]
class SKRL_Model--><g id="elem_SKRL_Model"><rect fill="#FFFFFF" height="44" id="SKRL_Model" rx="2.5" ry="2.5" style="stroke:#000000;stroke-width:1.0;" width="89" x="352.5" y="41"/><ellipse cx="365.5" cy="55" fill="#FFFFFF" rx="9" ry="9" style="stroke:#000000;stroke-width:1.0;"/><path d="M366.7813,58.2969 Q366.4375,58.4688 366.0625,58.5469 Q365.6875,58.6406 365.2656,58.6406 Q363.7969,58.6406 363.0156,57.6719 Q362.25,56.7031 362.25,54.8594 Q362.25,53.0156 363.0156,52.0469 Q363.7969,51.0781 365.2656,51.0781 Q365.6875,51.0781 366.0625,51.1719 Q366.4531,51.25 366.7813,51.4219 L366.7813,53.0313 Q366.4063,52.6875 366.0469,52.5313 Q365.7031,52.375 365.3438,52.375 Q364.5469,52.375 364.1406,53 Q363.7344,53.625 363.7344,54.8594 Q363.7344,56.0938 364.1406,56.7188 Q364.5469,57.3438 365.3438,57.3438 Q365.7031,57.3438 366.0469,57.1875 Q366.4063,57.0313 366.7813,56.6875 L366.7813,58.2969 Z " fill="#000000"/><text fill="#000000" font-family="Verdana" font-size="10" lengthAdjust="spacing" textLength="61" x="377.5" y="58.4619">SKRL_Model</text><line style="stroke:#000000;stroke-width:1.0;" x1="353.5" x2="440.5" y1="69" y2="69"/><line style="stroke:#000000;stroke-width:1.0;" x1="353.5" x2="440.5" y1="77" y2="77"/></g><!--MD5=[a9ba4dbe643d48f59ad2d11163052590]
class Torch_Module--><g id="elem_Torch_Module"><rect fill="#FFFFFF" height="44" id="Torch_Module" rx="2.5" ry="2.5" style="stroke:#000000;stroke-width:1.0;" width="94" x="477" y="41"/><ellipse cx="490" cy="55" fill="#FFFFFF" rx="9" ry="9" style="stroke:#000000;stroke-width:1.0;"/><path d="M491.2813,58.2969 Q490.9375,58.4688 490.5625,58.5469 Q490.1875,58.6406 489.7656,58.6406 Q488.2969,58.6406 487.5156,57.6719 Q486.75,56.7031 486.75,54.8594 Q486.75,53.0156 487.5156,52.0469 Q488.2969,51.0781 489.7656,51.0781 Q490.1875,51.0781 490.5625,51.1719 Q490.9531,51.25 491.2813,51.4219 L491.2813,53.0313 Q490.9063,52.6875 490.5469,52.5313 Q490.2031,52.375 489.8438,52.375 Q489.0469,52.375 488.6406,53 Q488.2344,53.625 488.2344,54.8594 Q488.2344,56.0938 488.6406,56.7188 Q489.0469,57.3438 489.8438,57.3438 Q490.2031,57.3438 490.5469,57.1875 Q490.9063,57.0313 491.2813,56.6875 L491.2813,58.2969 Z " fill="#000000"/><text fill="#000000" font-family="Verdana" font-size="10" lengthAdjust="spacing" textLength="66" x="502" y="58.4619">Torch_Module</text><line style="stroke:#000000;stroke-width:1.0;" x1="478" x2="570" y1="69" y2="69"/><line style="stroke:#000000;stroke-width:1.0;" x1="478" x2="570" y1="77" y2="77"/></g><!--MD5=[9445d644bbe92584b3fa45e77778917b]
class Policy--><g id="elem_Policy"><rect codeLine="15" fill="#FFFFFF" height="78.9219" id="Policy" rx="2.5" ry="2.5" style="stroke:#000000;stroke-width:1.0;" width="183" x="27.5" y="292"/><ellipse cx="101.25" cy="306" fill="#FFFFFF" rx="9" ry="9" style="stroke:#000000;stroke-width:1.0;"/><path d="M102.5313,309.2969 Q102.1875,309.4688 101.8125,309.5469 Q101.4375,309.6406 101.0156,309.6406 Q99.5469,309.6406 98.7656,308.6719 Q98,307.7031 98,305.8594 Q98,304.0156 98.7656,303.0469 Q99.5469,302.0781 101.0156,302.0781 Q101.4375,302.0781 101.8125,302.1719 Q102.2031,302.25 102.5313,302.4219 L102.5313,304.0313 Q102.1563,303.6875 101.7969,303.5313 Q101.4531,303.375 101.0938,303.375 Q100.2969,303.375 99.8906,304 Q99.4844,304.625 99.4844,305.8594 Q99.4844,307.0938 99.8906,307.7188 Q100.2969,308.3438 101.0938,308.3438 Q101.4531,308.3438 101.7969,308.1875 Q102.1563,308.0313 102.5313,307.6875 L102.5313,309.2969 Z " fill="#000000"/><text fill="#000000" font-family="Verdana" font-size="10" lengthAdjust="spacing" textLength="28" x="118.75" y="309.4619">Policy</text><line style="stroke:#000000;stroke-width:1.0;" x1="28.5" x2="209.5" y1="320" y2="320"/><text fill="#000000" font-family="Verdana" font-size="10" lengthAdjust="spacing" textLength="171" x="33.5" y="333.2822">#features_extractor: Torch_Module</text><text fill="#000000" font-family="Verdana" font-size="10" lengthAdjust="spacing" textLength="96" x="33.5" y="344.9229">#net: Torch_Module</text><line style="stroke:#000000;stroke-width:1.0;" x1="28.5" x2="209.5" y1="351.2813" y2="351.2813"/><text fill="#000000" font-family="Verdana" font-size="10" lengthAdjust="spacing" textLength="84" x="33.5" y="364.5635">+act(inputs, role)</text></g><!--MD5=[7ec2fd2e4ab7b8d43282e1a2f5a61261]
class SKRL_CategoricalMixin--><g id="elem_SKRL_CategoricalMixin"><rect fill="#FFFFFF" height="44" id="SKRL_CategoricalMixin" rx="2.5" ry="2.5" style="stroke:#000000;stroke-width:1.0;" width="140" x="90" y="169.5"/><ellipse cx="103" cy="183.5" fill="#FFFFFF" rx="9" ry="9" style="stroke:#000000;stroke-width:1.0;"/><path d="M104.2813,186.7969 Q103.9375,186.9688 103.5625,187.0469 Q103.1875,187.1406 102.7656,187.1406 Q101.2969,187.1406 100.5156,186.1719 Q99.75,185.2031 99.75,183.3594 Q99.75,181.5156 100.5156,180.5469 Q101.2969,179.5781 102.7656,179.5781 Q103.1875,179.5781 103.5625,179.6719 Q103.9531,179.75 104.2813,179.9219 L104.2813,181.5313 Q103.9063,181.1875 103.5469,181.0313 Q103.2031,180.875 102.8438,180.875 Q102.0469,180.875 101.6406,181.5 Q101.2344,182.125 101.2344,183.3594 Q101.2344,184.5938 101.6406,185.2188 Q102.0469,185.8438 102.8438,185.8438 Q103.2031,185.8438 103.5469,185.6875 Q103.9063,185.5313 104.2813,185.1875 L104.2813,186.7969 Z " fill="#000000"/><text fill="#000000" font-family="Verdana" font-size="10" lengthAdjust="spacing" textLength="112" x="115" y="186.9619">SKRL_CategoricalMixin</text><line style="stroke:#000000;stroke-width:1.0;" x1="91" x2="229" y1="197.5" y2="197.5"/><line style="stroke:#000000;stroke-width:1.0;" x1="91" x2="229" y1="205.5" y2="205.5"/></g><!--MD5=[ff3d20c1112759d46dde2fcead238479]
class Value--><g id="elem_Value"><rect codeLine="21" fill="#FFFFFF" height="67.2813" id="Value" rx="2.5" ry="2.5" style="stroke:#000000;stroke-width:1.0;" width="183" x="393.5" y="298"/><ellipse cx="467.75" cy="312" fill="#FFFFFF" rx="9" ry="9" style="stroke:#000000;stroke-width:1.0;"/><path d="M469.0313,315.2969 Q468.6875,315.4688 468.3125,315.5469 Q467.9375,315.6406 467.5156,315.6406 Q466.0469,315.6406 465.2656,314.6719 Q464.5,313.7031 464.5,311.8594 Q464.5,310.0156 465.2656,309.0469 Q466.0469,308.0781 467.5156,308.0781 Q467.9375,308.0781 468.3125,308.1719 Q468.7031,308.25 469.0313,308.4219 L469.0313,310.0313 Q468.6563,309.6875 468.2969,309.5313 Q467.9531,309.375 467.5938,309.375 Q466.7969,309.375 466.3906,310 Q465.9844,310.625 465.9844,311.8594 Q465.9844,313.0938 466.3906,313.7188 Q466.7969,314.3438 467.5938,314.3438 Q467.9531,314.3438 468.2969,314.1875 Q468.6563,314.0313 469.0313,313.6875 L469.0313,315.2969 Z " fill="#000000"/><text fill="#000000" font-family="Verdana" font-size="10" lengthAdjust="spacing" textLength="27" x="485.25" y="315.4619">Value</text><line style="stroke:#000000;stroke-width:1.0;" x1="394.5" x2="575.5" y1="326" y2="326"/><text fill="#000000" font-family="Verdana" font-size="10" lengthAdjust="spacing" textLength="171" x="399.5" y="339.2822">#features_extractor: Torch_Module</text><text fill="#000000" font-family="Verdana" font-size="10" lengthAdjust="spacing" textLength="96" x="399.5" y="350.9229">#net: Torch_Module</text><line style="stroke:#000000;stroke-width:1.0;" x1="394.5" x2="575.5" y1="357.2813" y2="357.2813"/></g><!--MD5=[9693d834c78701b8c21b45d54c82b64d]
class LSTMPolicy--><g id="elem_LSTMPolicy"><rect codeLine="26" fill="#FFFFFF" height="90.5625" id="LSTMPolicy" rx="2.5" ry="2.5" style="stroke:#000000;stroke-width:1.0;" width="113" x="245.5" y="286"/><ellipse cx="272" cy="300" fill="#FFFFFF" rx="9" ry="9" style="stroke:#000000;stroke-width:1.0;"/><path d="M273.2813,303.2969 Q272.9375,303.4688 272.5625,303.5469 Q272.1875,303.6406 271.7656,303.6406 Q270.2969,303.6406 269.5156,302.6719 Q268.75,301.7031 268.75,299.8594 Q268.75,298.0156 269.5156,297.0469 Q270.2969,296.0781 271.7656,296.0781 Q272.1875,296.0781 272.5625,296.1719 Q272.9531,296.25 273.2813,296.4219 L273.2813,298.0313 Q272.9063,297.6875 272.5469,297.5313 Q272.2031,297.375 271.8438,297.375 Q271.0469,297.375 270.6406,298 Q270.2344,298.625 270.2344,299.8594 Q270.2344,301.0938 270.6406,301.7188 Q271.0469,302.3438 271.8438,302.3438 Q272.2031,302.3438 272.5469,302.1875 Q272.9063,302.0313 273.2813,301.6875 L273.2813,303.2969 Z " fill="#000000"/><text fill="#000000" font-family="Verdana" font-size="10" lengthAdjust="spacing" textLength="55" x="287" y="303.4619">LSTMPolicy</text><line style="stroke:#000000;stroke-width:1.0;" x1="246.5" x2="357.5" y1="314" y2="314"/><text fill="#000000" font-family="Verdana" font-size="10" lengthAdjust="spacing" textLength="101" x="251.5" y="327.2822">#lstm: Torch_Module</text><text fill="#000000" font-family="Verdana" font-size="10" lengthAdjust="spacing" textLength="96" x="251.5" y="338.9229">#net: Torch_Module</text><line style="stroke:#000000;stroke-width:1.0;" x1="246.5" x2="357.5" y1="345.2813" y2="345.2813"/><text fill="#000000" font-family="Verdana" font-size="10" lengthAdjust="spacing" textLength="96" x="251.5" y="358.5635">+get_specification()</text><text fill="#000000" font-family="Verdana" font-size="10" lengthAdjust="spacing" textLength="84" x="251.5" y="370.2041">+act(inputs, role)</text></g><!--MD5=[7fb0ef958bdbe1b799e036116e683e52]
class LSTMValue--><g id="elem_LSTMValue"><rect codeLine="33" fill="#FFFFFF" height="78.9219" id="LSTMValue" rx="2.5" ry="2.5" style="stroke:#000000;stroke-width:1.0;" width="113" x="611.5" y="292"/><ellipse cx="638.45" cy="306" fill="#FFFFFF" rx="9" ry="9" style="stroke:#000000;stroke-width:1.0;"/><path d="M639.7313,309.2969 Q639.3875,309.4688 639.0125,309.5469 Q638.6375,309.6406 638.2156,309.6406 Q636.7469,309.6406 635.9656,308.6719 Q635.2,307.7031 635.2,305.8594 Q635.2,304.0156 635.9656,303.0469 Q636.7469,302.0781 638.2156,302.0781 Q638.6375,302.0781 639.0125,302.1719 Q639.4031,302.25 639.7313,302.4219 L639.7313,304.0313 Q639.3563,303.6875 638.9969,303.5313 Q638.6531,303.375 638.2938,303.375 Q637.4969,303.375 637.0906,304 Q636.6844,304.625 636.6844,305.8594 Q636.6844,307.0938 637.0906,307.7188 Q637.4969,308.3438 638.2938,308.3438 Q638.6531,308.3438 638.9969,308.1875 Q639.3563,308.0313 639.7313,307.6875 L639.7313,309.2969 Z " fill="#000000"/><text fill="#000000" font-family="Verdana" font-size="10" lengthAdjust="spacing" textLength="54" x="653.55" y="309.4619">LSTMValue</text><line style="stroke:#000000;stroke-width:1.0;" x1="612.5" x2="723.5" y1="320" y2="320"/><text fill="#000000" font-family="Verdana" font-size="10" lengthAdjust="spacing" textLength="101" x="617.5" y="333.2822">#lstm: Torch_Module</text><text fill="#000000" font-family="Verdana" font-size="10" lengthAdjust="spacing" textLength="96" x="617.5" y="344.9229">#net: Torch_Module</text><line style="stroke:#000000;stroke-width:1.0;" x1="612.5" x2="723.5" y1="351.2813" y2="351.2813"/><text fill="#000000" font-family="Verdana" font-size="10" lengthAdjust="spacing" textLength="96" x="617.5" y="364.5635">+get_specification()</text></g><!--MD5=[6de6d1d73924c5f3304402eefa7946eb]
reverse link SKRL_Model to _BaseTorchModel--><g id="link_SKRL_Model__BaseTorchModel"><path d="M416.46,103.08 C425.21,120.63 435.41,141.12 443.73,157.84 " fill="none" id="SKRL_Model-backto-_BaseTorchModel" style="stroke:#000000;stroke-width:1.0;"/><polygon fill="none" points="410.19,106.2,407.54,85.17,422.73,99.96,410.19,106.2" style="stroke:#000000;stroke-width:1.0;"/></g><!--MD5=[96b09b87868d5a2376819a3b7e9fd472]
reverse link Torch_Module to _BaseTorchModel--><g id="link_Torch_Module__BaseTorchModel"><path codeLine="13" d="M504.23,103.08 C495.35,120.63 484.98,141.12 476.52,157.84 " fill="none" id="Torch_Module-backto-_BaseTorchModel" style="stroke:#000000;stroke-width:1.0;stroke-dasharray:7.0,7.0;"/><polygon fill="none" points="498.01,99.86,513.29,85.17,510.51,106.18,498.01,99.86" style="stroke:#000000;stroke-width:1.0;"/><text fill="#000000" font-family="Verdana" font-size="10" lengthAdjust="spacing" textLength="91" x="498" y="125.2822">extends (implicitly)</text></g><!--MD5=[bf487e76badf2dcd8db359bbddbdfc2b]
reverse link _BaseTorchModel to Policy--><g id="link__BaseTorchModel_Policy"><path d="M360.29,232.57 C319.29,249.08 271.35,268.42 228,286 C222.32,288.3 216.47,290.68 210.57,293.08 " fill="none" id="_BaseTorchModel-backto-Policy" style="stroke:#000000;stroke-width:1.0;"/><polygon fill="none" points="357.73,226.05,378.9,225.08,362.96,239.04,357.73,226.05" style="stroke:#000000;stroke-width:1.0;"/></g><!--MD5=[8eb704feffa170738ba8062be6b2b857]
reverse link SKRL_CategoricalMixin to Policy--><g id="link_SKRL_CategoricalMixin_Policy"><path d="M147.97,232.99 C142.44,251.61 135.9,273.6 130.44,291.98 " fill="none" id="SKRL_CategoricalMixin-backto-Policy" style="stroke:#000000;stroke-width:1.0;"/><polygon fill="none" points="141.28,230.94,153.68,213.76,154.7,234.93,141.28,230.94" style="stroke:#000000;stroke-width:1.0;"/></g><!--MD5=[480c4dabadac6329bc379c1923003cd1]
reverse link _BaseTorchModel to Value--><g id="link__BaseTorchModel_Value"><path d="M469.5,244.94 C472.7,262.61 476.18,281.82 479.03,297.55 " fill="none" id="_BaseTorchModel-backto-Value" style="stroke:#000000;stroke-width:1.0;"/><polygon fill="none" points="462.6,246.13,465.92,225.2,476.38,243.64,462.6,246.13" style="stroke:#000000;stroke-width:1.0;"/></g><!--MD5=[022f62e573bd907f609c7195adb2e245]
reverse link _BaseTorchModel to LSTMPolicy--><g id="link__BaseTorchModel_LSTMPolicy"><path d="M407.49,238.36 C390.02,253.62 370.59,270.59 353.22,285.76 " fill="none" id="_BaseTorchModel-backto-LSTMPolicy" style="stroke:#000000;stroke-width:1.0;"/><polygon fill="none" points="402.89,233.09,422.56,225.2,412.1,243.63,402.89,233.09" style="stroke:#000000;stroke-width:1.0;"/></g><!--MD5=[441b838487450cc6a98d24771afcd4f6]
reverse link SKRL_CategoricalMixin to LSTMPolicy--><g id="link_SKRL_CategoricalMixin_LSTMPolicy"><path d="M196.33,227.81 C214.49,245.46 236.66,267 255.99,285.79 " fill="none" id="SKRL_CategoricalMixin-backto-LSTMPolicy" style="stroke:#000000;stroke-width:1.0;"/><polygon fill="none" points="191.34,232.72,181.88,213.76,201.1,222.68,191.34,232.72" style="stroke:#000000;stroke-width:1.0;"/></g><!--MD5=[d35e934839b88caf12b5f52732b36370]
reverse link _BaseTorchModel to LSTMValue--><g id="link__BaseTorchModel_LSTMValue"><path d="M525.92,236.23 C553.33,254.42 584.83,275.32 611.2,292.81 " fill="none" id="_BaseTorchModel-backto-LSTMValue" style="stroke:#000000;stroke-width:1.0;"/><polygon fill="none" points="521.83,241.92,509.03,225.03,529.57,230.25,521.83,241.92" style="stroke:#000000;stroke-width:1.0;"/></g><!--MD5=[c40943355a3ed4f5510f39f5634ab97f]
@startuml
!theme plain
skinparam backgroundColor white
skinparam defaultFontSize 10
skinparam classAttributeIconSize 0
skinparam packageStyle rect
hide emptymembers

package "src.models" <<Folder>> {
  abstract class _BaseTorchModel extends SKRL_Model {
    + __init__(observation_space, action_space, device)
    + compute(inputs, role)
  }
  _BaseTorchModel .up.|> Torch_Module : "extends (implicitly)"

  class Policy extends _BaseTorchModel, SKRL_CategoricalMixin {
    # features_extractor: Torch_Module
    # net: Torch_Module
    + act(inputs, role)
  }

  class Value extends _BaseTorchModel {
    # features_extractor: Torch_Module
    # net: Torch_Module
  }

  class LSTMPolicy extends _BaseTorchModel, SKRL_CategoricalMixin {
    # lstm: Torch_Module
    # net: Torch_Module
    + get_specification()
    + act(inputs, role)
  }

  class LSTMValue extends _BaseTorchModel {
    # lstm: Torch_Module
    # net: Torch_Module
    + get_specification()
  }
}
@enduml

@startuml







<style>
  root {
    BackgroundColor white
    FontColor black
    FontName Verdana
    HyperLinkColor blue
    LineColor black
    LineThickness 1
    Margin 5
  }
  caption {
    LineThickness 0
  }
  footer {
    LineThickness 0
  }
  header {
    LineThickness 0
  }
  node {
    MaximumWidth 300
  }
  title {
    FontSize 22
    LineThickness 0
  }
</style>

skinparam ArrowLollipopColor black
skinparam BackgroundColor white
skinparam DefaultFontName Verdana
skinparam DefaultMonospacedFontName Courier
skinparam LifelineStrategy nosolid
skinparam ParticipantPadding 10
skinparam SequenceLifeLineBorderColor black
skinparam Shadowing false
skinparam UseBetaStyle true

skinparam Activity {
  BackgroundColor white
  BarColor black
  BorderColor black
  FontColor black
  FontName Verdana
}
skinparam Boundary {
  FontColor black
}
skinparam Box {
  Padding 5
}
skinparam CircledCharacter {
  FontColor black
  FontName Courier
  Radius 9
}
skinparam Class {
  BackgroundColor white
  BorderColor black
  FontColor black
  FontName Verdana
}
skinparam ClassAttribute {
  FontColor black
  FontName Verdana
}
skinparam ClassStereotype {
  FontColor black
  FontName Verdana
}
skinparam Footer {
  FontColor black
  FontName Verdana
}
skinparam Header {
  FontColor black
  FontName Verdana
}
skinparam Hyperlink {
  Color blue
}
skinparam IconPackage {
  Color black
  BackgroundColor white
}
skinparam IconPrivate {
  Color black
  BackgroundColor white
}
skinparam IconProtected {
  Color black
  BackgroundColor white
}
skinparam IconPublic {
  Color black
  BackgroundColor white
}
skinparam Note {
  FontColor black
  FontName Verdana
}
skinparam Object {
  BorderColor black
}
skinparam Package {
  BorderColor black
  FontColor black
  FontName Verdana
}
skinparam State {
  BackgroundColor white
  BorderColor black
}
skinparam StereotypeA {
  BackgroundColor white
  BorderColor black
}
skinparam StereotypeC {
  BackgroundColor white
  BorderColor black
}
skinparam StereotypeE {
  BackgroundColor white
  BorderColor black
}
skinparam StereotypeI {
  BackgroundColor white
  BorderColor black
}
skinparam StereotypeN {
  BackgroundColor white
  BorderColor black
}
skinparam UseCaseStereoType {
  FontColor black
  FontName Verdana
}
skinparam backgroundColor white
skinparam defaultFontSize 10
skinparam classAttributeIconSize 0
skinparam packageStyle rect
hide emptymembers

package "src.models" <<Folder>> {
  abstract class _BaseTorchModel extends SKRL_Model {
    + __init__(observation_space, action_space, device)
    + compute(inputs, role)
  }
  _BaseTorchModel .up.|> Torch_Module : "extends (implicitly)"

  class Policy extends _BaseTorchModel, SKRL_CategoricalMixin {
    # features_extractor: Torch_Module
    # net: Torch_Module
    + act(inputs, role)
  }

  class Value extends _BaseTorchModel {
    # features_extractor: Torch_Module
    # net: Torch_Module
  }

  class LSTMPolicy extends _BaseTorchModel, SKRL_CategoricalMixin {
    # lstm: Torch_Module
    # net: Torch_Module
    + get_specification()
    + act(inputs, role)
  }

  class LSTMValue extends _BaseTorchModel {
    # lstm: Torch_Module
    # net: Torch_Module
    + get_specification()
  }
}
@enduml

PlantUML version 1.2022.7(Mon Aug 22 17:01:30 UTC 2022)
(GPL source distribution)
Java Runtime: OpenJDK Runtime Environment
JVM: OpenJDK 64-Bit Server VM
Default Encoding: UTF-8
Language: en
Country: null
--></g></svg>